ExpletusSans-BoldItalic.ufo
<glyph name="numbersign" format="2">
  <advance width="1788"/>
  <unicode hex="0023"/>
  <outline>
    <contour>
      <point x="290" y="0" type="line"/>
      <point x="514" y="0" type="line" name="hr01"/>
      <point x="802" y="924" type="line"/>
      <point x="1164" y="924" type="line"/>
      <point x="1200" y="928" type="line"/>
      <point x="1182" y="896" type="line"/>
      <point x="1050" y="482" type="line"/>
      <point x="918" y="482" type="line" smooth="yes"/>
      <point x="774" y="482"/>
      <point x="708" y="384"/>
      <point x="672" y="308" type="curve"/>
      <point x="980" y="308" type="line"/>
      <point x="1012" y="312" type="line"/>
      <point x="994" y="282" type="line"/>
      <point x="904" y="0" type="line"/>
      <point x="1128" y="0" type="line" name="hr07"/>
      <point x="1224" y="308" type="line"/>
      <point x="1478" y="308" type="line"/>
      <point x="1500" y="482" type="line"/>
      <point x="1274" y="482" type="line"/>
      <point x="1414" y="926" type="line"/>
      <point x="1674" y="926" type="line"/>
      <point x="1696" y="1100" type="line"/>
      <point x="1468" y="1100" type="line" name="hr06"/>
      <point x="1566" y="1404" type="line"/>
      <point x="1342" y="1404" type="line" name="hr05"/>
      <point x="1246" y="1100" type="line"/>
      <point x="856" y="1100" type="line" name="hr04"/>
      <point x="952" y="1404" type="line"/>
      <point x="728" y="1404" type="line" name="hr03"/>
      <point x="634" y="1100" type="line"/>
      <point x="382" y="1100" type="line"/>
      <point x="360" y="924" type="line"/>
      <point x="556" y="924" type="line"/>
      <point x="588" y="928" type="line"/>
      <point x="572" y="906" type="line"/>
      <point x="438" y="480" type="line"/>
      <point x="188" y="480" type="line"/>
      <point x="166" y="308" type="line"/>
      <point x="370" y="308" type="line" name="hr02"/>
      <point x="400" y="312" type="line"/>
      <point x="382" y="290" type="line"/>
    </contour>
  </outline>
</glyph>
<glyph name="percent" format="2">
  <advance width="1628"/>
  <unicode hex="0025"/>
  <outline>
    <contour>
      <point x="276" y="0" type="line"/>
      <point x="498" y="0" type="line"/>
      <point x="1546" y="1404" type="line"/>
      <point x="1324" y="1404" type="line"/>
    </contour>
    <contour>
      <point x="432" y="620" type="curve" smooth="yes"/>
      <point x="644" y="620"/>
      <point x="798" y="770"/>
      <point x="830" y="1028" type="curve" smooth="yes"/>
      <point x="860" y="1284"/>
      <point x="744" y="1434"/>
      <point x="532" y="1434" type="curve" smooth="yes"/>
      <point x="320" y="1434"/>
      <point x="168" y="1284"/>
      <point x="138" y="1028" type="curve" smooth="yes"/>
      <point x="106" y="768"/>
      <point x="220" y="620"/>
    </contour>
    <contour>
      <point x="450" y="778" type="curve" smooth="yes"/>
      <point x="378" y="778"/>
      <point x="336" y="862"/>
      <point x="358" y="1028" type="curve" smooth="yes"/>
      <point x="378" y="1190"/>
      <point x="440" y="1276"/>
      <point x="512" y="1276" type="curve" smooth="yes"/>
      <point x="588" y="1276"/>
      <point x="628" y="1190"/>
      <point x="608" y="1028" type="curve" smooth="yes"/>
      <point x="586" y="862"/>
      <point x="526" y="778"/>
    </contour>
    <contour>
      <point x="1290" y="-26" type="curve" smooth="yes" name="hr01"/>
      <point x="1502" y="-26"/>
      <point x="1656" y="124"/>
      <point x="1688" y="382" type="curve" smooth="yes"/>
      <point x="1720" y="638"/>
      <point x="1602" y="788"/>
      <point x="1390" y="788" type="curve" smooth="yes"/>
      <point x="1178" y="788"/>
      <point x="1028" y="638"/>
      <point x="996" y="382" type="curve" smooth="yes"/>
      <point x="964" y="122"/>
      <point x="1078" y="-26"/>
    </contour>
    <contour>
      <point x="1310" y="132" type="curve" smooth="yes"/>
      <point x="1238" y="132"/>
      <point x="1196" y="216"/>
      <point x="1216" y="382" type="curve" smooth="yes"/>
      <point x="1236" y="544"/>
      <point x="1298" y="630"/>
      <point x="1370" y="630" type="curve" smooth="yes"/>
      <point x="1446" y="630"/>
      <point x="1486" y="544"/>
      <point x="1466" y="382" type="curve" smooth="yes"/>
      <point x="1446" y="216"/>
      <point x="1386" y="132"/>
    </contour>
  </outline>
</glyph>
<glyph name="ampersand" format="2">
  <advance width="1522"/>
  <unicode hex="0026"/>
  <outline>
    <contour>
      <point x="666" y="-22" type="curve" smooth="yes"/>
      <point x="786" y="-22"/>
      <point x="888" y="10"/>
      <point x="990" y="78" type="curve"/>
      <point x="942" y="140"/>
      <point x="890" y="200"/>
      <point x="788" y="192" type="curve" smooth="yes"/>
      <point x="764" y="190"/>
      <point x="750" y="186"/>
      <point x="722" y="186" type="curve" smooth="yes"/>
      <point x="580" y="186"/>
      <point x="522" y="298"/>
      <point x="540" y="444" type="curve" smooth="yes"/>
      <point x="550" y="528"/>
      <point x="586" y="590"/>
      <point x="636" y="646" type="curve"/>
      <point x="658" y="682" type="line"/>
      <point x="672" y="648" type="line"/>
      <point x="1152" y="0" type="line"/>
      <point x="1470" y="0" type="line" name="hr01"/>
      <point x="1252" y="294" type="line"/>
      <point x="1350" y="428"/>
      <point x="1416" y="582"/>
      <point x="1474" y="758" type="curve"/>
      <point x="1244" y="758" type="line"/>
      <point x="1218" y="662"/>
      <point x="1186" y="582"/>
      <point x="1138" y="498" type="curve"/>
      <point x="1118" y="456" type="line"/>
      <point x="1104" y="492" type="line"/>
      <point x="874" y="808" type="line"/>
      <point x="780" y="940"/>
      <point x="720" y="1016"/>
      <point x="732" y="1118" type="curve" smooth="yes"/>
      <point x="744" y="1206"/>
      <point x="828" y="1266"/>
      <point x="942" y="1266" type="curve" smooth="yes"/>
      <point x="1014" y="1266"/>
      <point x="1106" y="1250"/>
      <point x="1190" y="1222" type="curve"/>
      <point x="1272" y="1406" type="line"/>
      <point x="1180" y="1450"/>
      <point x="1060" y="1474"/>
      <point x="972" y="1474" type="curve" smooth="yes"/>
      <point x="714" y="1474"/>
      <point x="504" y="1344"/>
      <point x="474" y="1100" type="curve" smooth="yes"/>
      <point x="464" y="1026"/>
      <point x="472" y="960"/>
      <point x="550" y="830" type="curve"/>
      <point x="408" y="732"/>
      <point x="288" y="598"/>
      <point x="266" y="418" type="curve" smooth="yes"/>
      <point x="234" y="150"/>
      <point x="396" y="-22"/>
    </contour>
  </outline>
</glyph>
<glyph name="quotesingle" format="2">
  <advance width="382"/>
  <unicode hex="0027"/>
  <outline>
    <contour>
      <point x="176" y="1002" type="line"/>
      <point x="420" y="1002" type="line"/>
      <point x="476" y="1454" type="line"/>
      <point x="232" y="1454" type="line" name="hr00"/>
    </contour>
  </outline>
</glyph>
<glyph name="parenleft" format="2">
  <advance width="806"/>
  <unicode hex="0028"/>
  <outline>
    <contour>
      <point x="634" y="-352" type="curve"/>
      <point x="782" y="-220" type="line"/>
      <point x="578" y="-18"/>
      <point x="580" y="148"/>
      <point x="634" y="592" type="curve" smooth="yes" name="hr00"/>
      <point x="688" y="1034"/>
      <point x="726" y="1198"/>
      <point x="982" y="1404" type="curve"/>
      <point x="866" y="1534" type="line"/>
      <point x="532" y="1326"/>
      <point x="448" y="1090"/>
      <point x="388" y="592" type="curve"/>
      <point x="326" y="92"/>
      <point x="352" y="-144"/>
    </contour>
  </outline>
</glyph>
<glyph name="asterisk" format="2">
  <advance width="1060"/>
  <unicode hex="002A"/>
  <outline>
    <contour>
      <point x="478" y="692" type="line"/>
      <point x="622" y="1004" type="line"/>
      <point x="688" y="692" type="line"/>
      <point x="890" y="800" type="line"/>
      <point x="702" y="1046" type="line"/>
      <point x="734" y="1042"/>
      <point x="758" y="1038"/>
      <point x="1020" y="982" type="curve"/>
      <point x="1046" y="1198" type="line"/>
      <point x="716" y="1136" type="line"/>
      <point x="736" y="1158"/>
      <point x="754" y="1176"/>
      <point x="962" y="1382" type="curve"/>
      <point x="788" y="1492" type="line"/>
      <point x="642" y="1180" type="line" name="hr00"/>
      <point x="574" y="1492" type="line"/>
      <point x="372" y="1382" type="line"/>
      <point x="558" y="1138" type="line"/>
      <point x="248" y="1200" type="line"/>
      <point x="222" y="984" type="line"/>
      <point x="552" y="1048" type="line"/>
      <point x="304" y="800" type="line"/>
    </contour>
  </outline>
</glyph>
<glyph name="plus" format="2">
  <advance width="1136"/>
  <unicode hex="002B"/>
  <outline>
    <contour>
      <point x="468" y="124" type="line"/>
      <point x="680" y="124" type="line"/>
      <point x="728" y="514" type="line"/>
      <point x="1092" y="514" type="line"/>
      <point x="1116" y="706" type="line"/>
      <point x="752" y="706" type="line"/>
      <point x="800" y="1092" type="line"/>
      <point x="588" y="1092" type="line"/>
      <point x="540" y="706" type="line"/>
      <point x="180" y="706" type="line" name="hr00"/>
      <point x="156" y="514" type="line"/>
      <point x="516" y="514" type="line"/>
    </contour>
  </outline>
</glyph>
<glyph name="hyphen" format="2">
  <advance width="750"/>
  <unicode hex="002D"/>
  <outline>
    <contour>
      <point x="152" y="510" type="line" name="hr00"/>
      <point x="756" y="510" type="line"/>
      <point x="780" y="706" type="line"/>
      <point x="176" y="706" type="line"/>
    </contour>
  </outline>
</glyph>
<glyph name="period" format="2">
  <advance width="546"/>
  <unicode hex="002E"/>
  <outline>
    <contour>
      <point x="246" y="-30" type="curve" smooth="yes"/>
      <point x="338" y="-30"/>
      <point x="418" y="42"/>
      <point x="430" y="134" type="curve" smooth="yes"/>
      <point x="440" y="226"/>
      <point x="378" y="302"/>
      <point x="286" y="302" type="curve" smooth="yes"/>
      <point x="192" y="302"/>
      <point x="110" y="226"/>
      <point x="100" y="134" type="curve" smooth="yes" name="hr00"/>
      <point x="88" y="42"/>
      <point x="152" y="-30"/>
    </contour>
  </outline>
</glyph>
<glyph name="one" format="2">
  <advance width="638"/>
  <unicode hex="0031"/>
  <outline>
    <contour>
      <point x="258" y="0" type="line" name="hr00"/>
      <point x="514" y="0" type="line"/>
      <point x="686" y="1402" type="line"/>
      <point x="578" y="1402" type="line"/>
      <point x="102" y="1162" type="line"/>
      <point x="168" y="1002" type="line"/>
      <point x="394" y="1112" type="line"/>
    </contour>
  </outline>
</glyph>
<glyph name="two" format="2">
  <advance width="1134"/>
  <unicode hex="0032"/>
  <outline>
    <contour>
      <point x="88" y="0" type="line"/>
      <point x="1010" y="0" type="line"/>
      <point x="1036" y="218" type="line"/>
      <point x="516" y="218" type="line"/>
      <point x="470" y="212" type="line"/>
      <point x="506" y="248" type="line"/>
      <point x="712" y="466"/>
      <point x="1084" y="784"/>
      <point x="1116" y="1044" type="curve" smooth="yes" name="hr00"/>
      <point x="1144" y="1282"/>
      <point x="968" y="1426"/>
      <point x="658" y="1426" type="curve" smooth="yes"/>
      <point x="566" y="1426"/>
      <point x="446" y="1406"/>
      <point x="306" y="1344" type="curve"/>
      <point x="356" y="1160" type="line"/>
      <point x="460" y="1204"/>
      <point x="552" y="1222"/>
      <point x="614" y="1222" type="curve"/>
      <point x="744" y="1222"/>
      <point x="832" y="1150"/>
      <point x="816" y="1024" type="curve"/>
      <point x="786" y="770"/>
      <point x="246" y="380"/>
      <point x="102" y="118" type="curve"/>
    </contour>
  </outline>
</glyph>
<glyph name="less" format="2">
  <advance width="1226"/>
  <unicode hex="003C"/>
  <outline>
    <contour>
      <point x="1108" y="0" type="line"/>
      <point x="1140" y="262" type="line" name="hr00"/>
      <point x="480" y="540" type="line"/>
      <point x="428" y="552" type="line"/>
      <point x="482" y="566" type="line"/>
      <point x="1210" y="844" type="line"/>
      <point x="1242" y="1104" type="line"/>
      <point x="152" y="642" type="line"/>
      <point x="130" y="462" type="line"/>
    </contour>
  </outline>
</glyph>
<glyph name="greater" format="2">
  <advance width="1226"/>
  <unicode hex="003E"/>
  <outline>
    <contour>
      <point x="110" y="0" type="line"/>
      <point x="1200" y="462" type="line"/>
      <point x="1222" y="642" type="line"/>
      <point x="244" y="1104" type="line"/>
      <point x="212" y="844" type="line"/>
      <point x="872" y="566" type="line"/>
      <point x="922" y="552" type="line"/>
      <point x="870" y="540" type="line" name="hr00"/>
      <point x="142" y="262" type="line"/>
    </contour>
  </outline>
</glyph>
<glyph name="question" format="2">
  <advance width="1166"/>
  <unicode hex="003F"/>
  <outline>
    <contour>
      <point x="420" y="460" type="curve"/>
      <point x="656" y="460" type="line"/>
      <point x="688" y="724"/>
      <point x="1092" y="866"/>
      <point x="1126" y="1148" type="curve" smooth="yes"/>
      <point x="1152" y="1356"/>
      <point x="976" y="1474"/>
      <point x="710" y="1474" type="curve" smooth="yes" name="hr00"/>
      <point x="600" y="1474"/>
      <point x="496" y="1458"/>
      <point x="340" y="1392" type="curve"/>
      <point x="388" y="1204" type="line"/>
      <point x="524" y="1258"/>
      <point x="588" y="1266"/>
      <point x="664" y="1266" type="curve"/>
      <point x="778" y="1266"/>
      <point x="848" y="1208"/>
      <point x="836" y="1118" type="curve" smooth="yes"/>
      <point x="812" y="920"/>
      <point x="464" y="824"/>
    </contour>
    <contour>
      <point x="478" y="-28" type="curve" smooth="yes"/>
      <point x="570" y="-28"/>
      <point x="650" y="44"/>
      <point x="662" y="136" type="curve" smooth="yes"/>
      <point x="672" y="228"/>
      <point x="610" y="304"/>
      <point x="518" y="304" type="curve" smooth="yes"/>
      <point x="424" y="304"/>
      <point x="342" y="228"/>
      <point x="332" y="136" type="curve" smooth="yes"/>
      <point x="320" y="44"/>
      <point x="384" y="-28"/>
    </contour>
  </outline>
</glyph>
<glyph name="at" format="2">
  <advance width="1838"/>
  <unicode hex="0040"/>
  <outline>
    <contour>
      <point x="860" y="-264" type="curve" smooth="yes"/>
      <point x="992" y="-264"/>
      <point x="1096" y="-256"/>
      <point x="1294" y="-192" type="curve"/>
      <point x="1254" y="-38" type="line"/>
      <point x="1084" y="-88"/>
      <point x="998" y="-96"/>
      <point x="882" y="-96" type="curve" smooth="yes"/>
      <point x="568" y="-96"/>
      <point x="362" y="134"/>
      <point x="408" y="514" type="curve" smooth="yes"/>
      <point x="456" y="896"/>
      <point x="718" y="1128"/>
      <point x="1060" y="1128" type="curve" smooth="yes"/>
      <point x="1374" y="1128"/>
      <point x="1570" y="944"/>
      <point x="1536" y="656" type="curve" smooth="yes"/>
      <point x="1522" y="546"/>
      <point x="1452" y="404"/>
      <point x="1320" y="322" type="curve"/>
      <point x="1290" y="298" type="line"/>
      <point x="1298" y="340" type="line" name="hr00"/>
      <point x="1330" y="598" type="line"/>
      <point x="1358" y="820"/>
      <point x="1248" y="932"/>
      <point x="1030" y="932" type="curve" smooth="yes"/>
      <point x="946" y="932"/>
      <point x="866" y="920"/>
      <point x="752" y="878" type="curve"/>
      <point x="788" y="744" type="line"/>
      <point x="880" y="772"/>
      <point x="926" y="778"/>
      <point x="982" y="778" type="curve" smooth="yes"/>
      <point x="1098" y="778"/>
      <point x="1160" y="730"/>
      <point x="1146" y="608" type="curve"/>
      <point x="1114" y="350" type="line"/>
      <point x="1042" y="268"/>
      <point x="972" y="236"/>
      <point x="904" y="236" type="curve" smooth="yes"/>
      <point x="830" y="236"/>
      <point x="790" y="272"/>
      <point x="796" y="324" type="curve" smooth="yes"/>
      <point x="802" y="374"/>
      <point x="828" y="422"/>
      <point x="940" y="438" type="curve" smooth="yes"/>
      <point x="1022" y="450"/>
      <point x="1064" y="554"/>
      <point x="1072" y="590" type="curve"/>
      <point x="752" y="560"/>
      <point x="626" y="474"/>
      <point x="606" y="316" type="curve" smooth="yes"/>
      <point x="590" y="182"/>
      <point x="684" y="94"/>
      <point x="846" y="94" type="curve" smooth="yes"/>
      <point x="918" y="94"/>
      <point x="992" y="112"/>
      <point x="1080" y="190" type="curve"/>
      <point x="1106" y="230" type="line"/>
      <point x="1104" y="192" type="line"/>
      <point x="1112" y="158"/>
      <point x="1120" y="126"/>
      <point x="1148" y="110" type="curve"/>
      <point x="1448" y="162"/>
      <point x="1702" y="392"/>
      <point x="1734" y="656" type="curve" smooth="yes"/>
      <point x="1784" y="1068"/>
      <point x="1464" y="1296"/>
      <point x="1082" y="1296" type="curve" smooth="yes"/>
      <point x="678" y="1296"/>
      <point x="274" y="1012"/>
      <point x="212" y="514" type="curve" smooth="yes"/>
      <point x="146" y="-22"/>
      <point x="452" y="-264"/>
    </contour>
  </outline>
</glyph>
<glyph name="A" format="2">
  <advance width="1444"/>
  <unicode hex="0041"/>
  <anchor x="716" y="0" name="bottom"/>
  <anchor x="1384" y="0" name="ogonek"/>
  <anchor x="900" y="1454" name="top"/>
  <outline>
    <contour>
      <point x="60" y="0" type="line"/>
      <point x="342" y="0" type="line"/>
      <point x="486" y="318" type="line" name="hr00"/>
      <point x="920" y="318" type="line"/>
      <point x="902" y="406"/>
      <point x="862" y="524"/>
      <point x="746" y="524" type="curve" smooth="yes"/>
      <point x="594" y="524" type="line"/>
      <point x="562" y="520" type="line"/>
      <point x="592" y="560" type="line"/>
      <point x="826" y="1078" type="line"/>
      <point x="852" y="1156" type="line"/>
      <point x="860" y="1082" type="line"/>
      <point x="1088" y="0" type="line"/>
      <point x="1384" y="0" type="line"/>
      <point x="1040" y="1454" type="line"/>
      <point x="760" y="1454" type="line"/>
    </contour>
  </outline>
</glyph>
<glyph name="B" format="2">
  <advance width="1354"/>
  <unicode hex="0042"/>
  <anchor x="614" y="0" name="bottom"/>
  <anchor x="794" y="1454" name="top"/>
  <outline>
    <contour>
      <point x="748" y="-22" type="curve" smooth="yes" name="hr02"/>
      <point x="1062" y="-22"/>
      <point x="1284" y="204"/>
      <point x="1310" y="410" type="curve" smooth="yes"/>
      <point x="1328" y="554"/>
      <point x="1238" y="710"/>
      <point x="1098" y="762" type="curve"/>
      <point x="1044" y="776" type="line"/>
      <point x="1106" y="804" type="line"/>
      <point x="1212" y="866"/>
      <point x="1292" y="972"/>
      <point x="1304" y="1070" type="curve"/>
      <point x="1334" y="1316"/>
      <point x="1162" y="1480"/>
      <point x="802" y="1480" type="curve" smooth="yes"/>
      <point x="658" y="1480"/>
      <point x="556" y="1468"/>
      <point x="336" y="1432" type="curve"/>
      <point x="162" y="0" type="line"/>
      <point x="442" y="0" type="line" name="hr01"/>
      <point x="524" y="668" type="line"/>
      <point x="704" y="668" type="line" smooth="yes"/>
      <point x="902" y="668"/>
      <point x="1034" y="570"/>
      <point x="1016" y="412" type="curve" smooth="yes"/>
      <point x="998" y="266"/>
      <point x="888" y="184"/>
      <point x="750" y="180" type="curve" smooth="yes"/>
      <point x="748" y="180"/>
      <point x="744" y="180"/>
      <point x="742" y="180" type="curve" smooth="yes"/>
      <point x="634" y="180"/>
      <point x="562" y="82"/>
      <point x="520" y="12" type="curve"/>
      <point x="634" y="-16"/>
      <point x="674" y="-22"/>
    </contour>
    <contour>
      <point x="546" y="856" type="line"/>
      <point x="596" y="1264" type="line"/>
      <point x="670" y="1274"/>
      <point x="706" y="1278"/>
      <point x="778" y="1278" type="curve" smooth="yes"/>
      <point x="968" y="1278"/>
      <point x="1028" y="1162"/>
      <point x="1016" y="1068" type="curve" smooth="yes"/>
      <point x="1000" y="942"/>
      <point x="864" y="856"/>
      <point x="726" y="856" type="curve"/>
    </contour>
  </outline>
</glyph>
<glyph name="C" format="2">
  <advance width="1204"/>
  <unicode hex="0043"/>
  <anchor x="742" y="0" name="bottom"/>
  <anchor x="998" y="1454" name="top"/>
  <outline>
    <contour>
      <point x="866" y="-24" type="curve" name="hr00"/>
      <point x="978" y="-24"/>
      <point x="1104" y="6"/>
      <point x="1230" y="68" type="curve"/>
      <point x="1178" y="250" type="line"/>
      <point x="1074" y="204"/>
      <point x="984" y="182"/>
      <point x="892" y="182" type="curve"/>
      <point x="574" y="182"/>
      <point x="454" y="452"/>
      <point x="488" y="728" type="curve"/>
      <point x="522" y="1004"/>
      <point x="708" y="1274"/>
      <point x="1026" y="1274" type="curve" smooth="yes"/>
      <point x="1118" y="1274"/>
      <point x="1186" y="1262"/>
      <point x="1300" y="1228" type="curve"/>
      <point x="1394" y="1412" type="line"/>
      <point x="1274" y="1460"/>
      <point x="1162" y="1480"/>
      <point x="1050" y="1480" type="curve" smooth="yes"/>
      <point x="568" y="1480"/>
      <point x="236" y="1144"/>
      <point x="184" y="728" type="curve"/>
      <point x="132" y="306"/>
      <point x="372" y="-24"/>
    </contour>
  </outline>
</glyph>
<glyph name="D" format="2">
  <advance width="1494"/>
  <unicode hex="0044"/>
  <anchor x="724" y="0" name="bottom"/>
  <anchor x="518" y="712" name="center"/>
  <anchor x="944" y="1454" name="top"/>
  <outline>
    <contour>
      <point x="752" y="-24" type="curve" name="hr02"/>
      <point x="1160" y="-24"/>
      <point x="1502" y="308"/>
      <point x="1554" y="730" type="curve" smooth="yes"/>
      <point x="1612" y="1204"/>
      <point x="1332" y="1480"/>
      <point x="800" y="1480" type="curve" smooth="yes"/>
      <point x="684" y="1480"/>
      <point x="524" y="1466"/>
      <point x="340" y="1428" type="curve"/>
      <point x="166" y="0" type="line"/>
      <point x="448" y="0" type="line" name="hr01"/>
      <point x="602" y="1258" type="line"/>
      <point x="664" y="1268"/>
      <point x="724" y="1274"/>
      <point x="776" y="1274" type="curve" smooth="yes"/>
      <point x="1162" y="1274"/>
      <point x="1292" y="1044"/>
      <point x="1252" y="730" type="curve" smooth="yes"/>
      <point x="1220" y="464"/>
      <point x="1058" y="188"/>
      <point x="758" y="182" type="curve" smooth="yes"/>
      <point x="754" y="182"/>
      <point x="752" y="182"/>
      <point x="748" y="182" type="curve" smooth="yes"/>
      <point x="638" y="182"/>
      <point x="564" y="80"/>
      <point x="524" y="10" type="curve"/>
      <point x="636" y="-20"/>
      <point x="678" y="-24"/>
    </contour>
  </outline>
</glyph>
<glyph name="F" format="2">
  <advance width="1168"/>
  <unicode hex="0046"/>
  <anchor x="310" y="0" name="bottom"/>
  <anchor x="780" y="1454" name="top"/>
  <outline>
    <contour>
      <point x="166" y="0" type="line"/>
      <point x="452" y="0" type="line"/>
      <point x="604" y="1248" type="line"/>
      <point x="1190" y="1248" type="line"/>
      <point x="1216" y="1454" type="line"/>
      <point x="344" y="1454" type="line" name="hr00"/>
    </contour>
    <contour>
      <point x="608" y="662" type="curve"/>
      <point x="1050" y="662" type="line"/>
      <point x="1076" y="864" type="line"/>
      <point x="834" y="864" type="line"/>
      <point x="718" y="864"/>
      <point x="646" y="750"/>
    </contour>
  </outline>
</glyph>
<glyph name="H" format="2">
  <advance width="1528"/>
  <unicode hex="0048"/>
  <anchor x="768" y="0" name="bottom"/>
  <anchor x="856" y="728" name="center"/>
  <anchor x="946" y="1454" name="top"/>
  <anchor x="156" y="1454" name="topleft"/>
  <outline>
    <contour>
      <point x="1082" y="0" type="line"/>
      <point x="1364" y="0" type="line"/>
      <point x="1542" y="1454" type="line"/>
      <point x="1260" y="1454" type="line"/>
      <point x="1188" y="866" type="line"/>
      <point x="834" y="866" type="line"/>
      <point x="718" y="866"/>
      <point x="644" y="748"/>
      <point x="608" y="660" type="curve" name="hr00"/>
      <point x="1162" y="660" type="line"/>
    </contour>
    <contour>
      <point x="166" y="0" type="line"/>
      <point x="452" y="0" type="line"/>
      <point x="630" y="1454" type="line"/>
      <point x="344" y="1454" type="line"/>
    </contour>
  </outline>
</glyph>
<glyph name="J" format="2">
  <advance width="738"/>
  <unicode hex="004A"/>
  <anchor x="292" y="-400" name="bottom"/>
  <anchor x="616" y="1454" name="top"/>
  <outline>
    <contour>
      <point x="52" y="-444" type="line"/>
      <point x="386" y="-238"/>
      <point x="564" y="-116"/>
      <point x="610" y="256" type="curve" name="hr00"/>
      <point x="758" y="1454" type="line"/>
      <point x="474" y="1454" type="line"/>
      <point x="326" y="256" type="line"/>
      <point x="292" y="-20"/>
      <point x="164" y="-116"/>
      <point x="-54" y="-280" type="curve"/>
    </contour>
  </outline>
</glyph>
<glyph name="N" format="2">
  <advance width="1556"/>
  <unicode hex="004E"/>
  <anchor x="770" y="0" name="bottom"/>
  <anchor x="962" y="1454" name="top"/>
  <outline>
    <contour>
      <point x="188" y="0" type="line"/>
      <point x="432" y="0" type="line"/>
      <point x="556" y="1022" type="line"/>
      <point x="560" y="1090" type="line"/>
      <point x="584" y="1018" type="line" name="hr00"/>
      <point x="1102" y="0" type="line"/>
      <point x="1354" y="0" type="line"/>
      <point x="1532" y="1454" type="line"/>
      <point x="1280" y="1454" type="line"/>
      <point x="1160" y="476" type="line"/>
      <point x="1154" y="396" type="line"/>
      <point x="1136" y="476" type="line"/>
      <point x="642" y="1454" type="line"/>
      <point x="366" y="1454" type="line"/>
    </contour>
  </outline>
</glyph>
<glyph name="Q" format="2">
  <advance width="1562"/>
  <unicode hex="0051"/>
  <anchor x="788" y="0" name="bottom"/>
  <anchor x="988" y="1454" name="top"/>
  <outline>
    <contour>
      <point x="784" y="-28" type="curve"/>
      <point x="876" y="-28"/>
      <point x="984" y="4"/>
      <point x="1088" y="68" type="curve"/>
      <point x="1052" y="116"/>
      <point x="980" y="182"/>
      <point x="892" y="182" type="curve" smooth="yes"/>
      <point x="868" y="182"/>
      <point x="826" y="178"/>
      <point x="808" y="178" type="curve" name="hr02"/>
      <point x="554" y="178"/>
      <point x="444" y="452"/>
      <point x="478" y="728" type="curve"/>
      <point x="514" y="1024"/>
      <point x="690" y="1278"/>
      <point x="966" y="1278" type="curve"/>
      <point x="1242" y="1278"/>
      <point x="1354" y="1024"/>
      <point x="1318" y="728" type="curve" smooth="yes"/>
      <point x="1308" y="638"/>
      <point x="1278" y="536"/>
      <point x="1232" y="452" type="curve"/>
      <point x="1214" y="400" type="line"/>
      <point x="1194" y="442" type="line"/>
      <point x="1054" y="606" type="line"/>
      <point x="882" y="452" type="line"/>
      <point x="1314" y="-52" type="line" name="hr01"/>
      <point x="1486" y="100" type="line"/>
      <point x="1376" y="228" type="line"/>
      <point x="1502" y="366"/>
      <point x="1598" y="546"/>
      <point x="1620" y="728" type="curve" smooth="yes"/>
      <point x="1674" y="1168"/>
      <point x="1442" y="1484"/>
      <point x="992" y="1484" type="curve"/>
      <point x="550" y="1484"/>
      <point x="228" y="1164"/>
      <point x="174" y="728" type="curve"/>
      <point x="120" y="286"/>
      <point x="354" y="-28"/>
    </contour>
  </outline>
</glyph>
<glyph name="R" format="2">
  <advance width="1368"/>
  <unicode hex="0052"/>
  <anchor x="688" y="0" name="bottom"/>
  <anchor x="836" y="1454" name="top"/>
  <outline>
    <contour>
      <point x="166" y="0" type="line"/>
      <point x="454" y="0" type="line"/>
      <point x="608" y="1264" type="line"/>
      <point x="682" y="1272"/>
      <point x="706" y="1276"/>
      <point x="778" y="1276" type="curve" smooth="yes"/>
      <point x="934" y="1276"/>
      <point x="1044" y="1174"/>
      <point x="1026" y="1036" type="curve" smooth="yes"/>
      <point x="1010" y="906"/>
      <point x="908" y="810"/>
      <point x="798" y="800" type="curve" smooth="yes"/>
      <point x="706" y="792"/>
      <point x="642" y="692"/>
      <point x="602" y="616" type="curve"/>
      <point x="668" y="596"/>
      <point x="732" y="594"/>
      <point x="788" y="598" type="curve"/>
      <point x="924" y="482"/>
      <point x="892" y="204"/>
      <point x="962" y="0" type="curve"/>
      <point x="1256" y="0" type="line"/>
      <point x="1168" y="256"/>
      <point x="1206" y="504"/>
      <point x="1062" y="642" type="curve"/>
      <point x="1020" y="664" type="line"/>
      <point x="1080" y="686" type="line"/>
      <point x="1206" y="758"/>
      <point x="1300" y="878"/>
      <point x="1320" y="1036" type="curve" smooth="yes" name="hr00"/>
      <point x="1354" y="1318"/>
      <point x="1116" y="1482"/>
      <point x="802" y="1482" type="curve" smooth="yes"/>
      <point x="658" y="1482"/>
      <point x="562" y="1472"/>
      <point x="342" y="1436" type="curve"/>
    </contour>
  </outline>
</glyph>
<glyph name="S" format="2">
  <advance width="1154"/>
  <unicode hex="0053"/>
  <anchor x="548" y="0" name="bottom"/>
  <anchor x="728" y="1454" name="top"/>
  <outline>
    <contour>
      <point x="548" y="-26" type="curve"/>
      <point x="852" y="-26"/>
      <point x="1076" y="118"/>
      <point x="1108" y="376" type="curve" smooth="yes"/>
      <point x="1164" y="840"/>
      <point x="484" y="852"/>
      <point x="518" y="1124" type="curve" smooth="yes"/>
      <point x="528" y="1214"/>
      <point x="614" y="1280"/>
      <point x="734" y="1280" type="curve" name="hr00"/>
      <point x="822" y="1280"/>
      <point x="914" y="1266"/>
      <point x="1028" y="1232" type="curve"/>
      <point x="1124" y="1414" type="line"/>
      <point x="964" y="1468"/>
      <point x="862" y="1480"/>
      <point x="740" y="1480" type="curve"/>
      <point x="502" y="1480"/>
      <point x="286" y="1362"/>
      <point x="254" y="1100" type="curve" smooth="yes"/>
      <point x="200" y="664"/>
      <point x="878" y="660"/>
      <point x="842" y="370" type="curve" smooth="yes"/>
      <point x="830" y="266"/>
      <point x="716" y="180"/>
      <point x="574" y="180" type="curve"/>
      <point x="472" y="180"/>
      <point x="346" y="202"/>
      <point x="210" y="270" type="curve"/>
      <point x="112" y="84" type="line"/>
      <point x="284" y="0"/>
      <point x="434" y="-26"/>
    </contour>
  </outline>
</glyph>
<glyph name="T" format="2">
  <advance width="1068"/>
  <unicode hex="0054"/>
  <anchor x="532" y="0" name="bottom"/>
  <anchor x="620" y="728" name="center"/>
  <anchor x="710" y="1454" name="top"/>
  <outline>
    <contour>
      <point x="390" y="0" type="line"/>
      <point x="674" y="0" type="line"/>
      <point x="826" y="1248" type="line"/>
      <point x="1206" y="1248" type="line"/>
      <point x="1232" y="1454" type="line"/>
      <point x="188" y="1454" type="line"/>
      <point x="162" y="1248" type="line" name="hr00"/>
      <point x="542" y="1248" type="line"/>
    </contour>
  </outline>
</glyph>
<glyph name="U" format="2">
  <advance width="1454"/>
  <unicode hex="0055"/>
  <anchor x="748" y="0" name="bottom"/>
  <anchor x="1246" y="0" name="ogonek"/>
  <anchor x="926" y="1454" name="top"/>
  <anchor x="1530" y="1454" name="topright"/>
  <outline>
    <contour>
      <point x="744" y="-28" type="curve" smooth="yes" name="hr00"/>
      <point x="1102" y="-28"/>
      <point x="1352" y="202"/>
      <point x="1396" y="556" type="curve" smooth="yes"/>
      <point x="1506" y="1454" type="line"/>
      <point x="1226" y="1454" type="line"/>
      <point x="1112" y="526" type="line" smooth="yes"/>
      <point x="1084" y="308"/>
      <point x="938" y="178"/>
      <point x="768" y="178" type="curve" smooth="yes"/>
      <point x="596" y="178"/>
      <point x="484" y="308"/>
      <point x="512" y="526" type="curve" smooth="yes"/>
      <point x="626" y="1454" type="line"/>
      <point x="344" y="1454" type="line"/>
      <point x="234" y="556" type="line" smooth="yes"/>
      <point x="186" y="178"/>
      <point x="386" y="-28"/>
    </contour>
  </outline>
</glyph>
<glyph name="V" format="2">
  <advance width="1334"/>
  <unicode hex="0056"/>
  <anchor x="674" y="0" name="bottom"/>
  <anchor x="854" y="1454" name="top"/>
  <outline>
    <contour>
      <point x="526" y="0" type="line" name="hr00"/>
      <point x="820" y="0" type="line"/>
      <point x="1504" y="1454" type="line"/>
      <point x="1210" y="1454" type="line"/>
      <point x="732" y="348" type="line"/>
      <point x="708" y="274" type="line"/>
      <point x="704" y="350" type="line"/>
      <point x="498" y="1454" type="line"/>
      <point x="194" y="1454" type="line"/>
    </contour>
  </outline>
</glyph>
<glyph name="W" format="2">
  <advance width="2118"/>
  <unicode hex="0057"/>
  <anchor x="1064" y="0" name="bottom"/>
  <anchor x="1244" y="1454" name="top"/>
  <outline>
    <contour>
      <point x="474" y="0" type="line"/>
      <point x="762" y="0" type="line"/>
      <point x="1176" y="1072" type="line"/>
      <point x="1202" y="1152" type="line"/>
      <point x="1210" y="1070" type="line"/>
      <point x="1364" y="0" type="line"/>
      <point x="1646" y="0" type="line"/>
      <point x="2234" y="1454" type="line"/>
      <point x="1962" y="1454" type="line"/>
      <point x="1560" y="384" type="line"/>
      <point x="1530" y="276" type="line"/>
      <point x="1524" y="388" type="line"/>
      <point x="1398" y="1434" type="line" name="hr00"/>
      <point x="1084" y="1434" type="line"/>
      <point x="694" y="386" type="line"/>
      <point x="658" y="276" type="line"/>
      <point x="656" y="386" type="line"/>
      <point x="518" y="1454" type="line"/>
      <point x="240" y="1454" type="line"/>
    </contour>
  </outline>
</glyph>
<glyph name="X" format="2">
  <advance width="1322"/>
  <unicode hex="0058"/>
  <anchor x="658" y="0" name="bottom"/>
  <anchor x="838" y="1454" name="top"/>
  <outline>
    <contour>
      <point x="950" y="0" type="line"/>
      <point x="1260" y="0" type="line"/>
      <point x="894" y="736" type="line"/>
      <point x="1416" y="1454" type="line"/>
      <point x="1102" y="1454" type="line"/>
      <point x="796" y="976" type="line"/>
      <point x="774" y="914" type="line"/>
      <point x="760" y="976" type="line"/>
      <point x="574" y="1454" type="line"/>
      <point x="258" y="1454" type="line" name="hr00"/>
    </contour>
    <contour>
      <point x="58" y="0" type="line"/>
      <point x="364" y="0" type="line"/>
      <point x="560" y="290" type="line"/>
      <point x="644" y="414"/>
      <point x="574" y="582"/>
      <point x="532" y="650" type="curve"/>
    </contour>
  </outline>
</glyph>
<glyph name="Z" format="2">
  <advance width="1224"/>
  <unicode hex="005A"/>
  <anchor x="640" y="0" name="bottom"/>
  <anchor x="850" y="1454" name="top"/>
  <outline>
    <contour>
      <point x="94" y="0" type="line"/>
      <point x="1186" y="0" type="line"/>
      <point x="1210" y="206" type="line"/>
      <point x="494" y="206" type="line"/>
      <point x="448" y="200" type="line"/>
      <point x="484" y="230" type="line"/>
      <point x="1332" y="1336" type="line"/>
      <point x="1346" y="1454" type="line"/>
      <point x="334" y="1454" type="line" name="hr00"/>
      <point x="308" y="1252" type="line"/>
      <point x="940" y="1252" type="line"/>
      <point x="990" y="1258" type="line"/>
      <point x="954" y="1224" type="line"/>
      <point x="108" y="118" type="line"/>
    </contour>
  </outline>
</glyph>
<glyph name="bracketleft" format="2">
  <advance width="894"/>
  <unicode hex="005B"/>
  <outline>
    <contour>
      <point x="194" y="-398" type="line"/>
      <point x="800" y="-398" type="line"/>
      <point x="826" y="-190" type="line"/>
      <point x="484" y="-190" type="line"/>
      <point x="670" y="1334" type="line"/>
      <point x="1012" y="1334" type="line"/>
      <point x="1038" y="1542" type="line"/>
      <point x="432" y="1542" type="line" name="hr00"/>
    </contour>
  </outline>
</glyph>
<glyph name="bracketright" format="2">
  <advance width="894"/>
  <unicode hex="005D"/>
  <outline>
    <contour>
      <point x="30" y="-398" type="line"/>
      <point x="636" y="-398" type="line" name="hr00"/>
      <point x="874" y="1542" type="line"/>
      <point x="268" y="1542" type="line"/>
      <point x="242" y="1334" type="line"/>
      <point x="584" y="1334" type="line"/>
      <point x="398" y="-190" type="line"/>
      <point x="56" y="-190" type="line"/>
    </contour>
  </outline>
</glyph>
<glyph name="asciicircum" format="2">
  <advance width="1256"/>
  <unicode hex="005E"/>
  <outline>
    <contour>
      <point x="158" y="420" type="line"/>
      <point x="416" y="420" type="line" name="hr00"/>
      <point x="750" y="1086" type="line"/>
      <point x="772" y="1148" type="line"/>
      <point x="778" y="1086" type="line"/>
      <point x="950" y="420" type="line"/>
      <point x="1204" y="420" type="line"/>
      <point x="910" y="1454" type="line"/>
      <point x="708" y="1454" type="line"/>
    </contour>
  </outline>
</glyph>
<glyph name="a" format="2">
  <advance width="1226"/>
  <unicode hex="0061"/>
  <anchor x="570" y="0" name="bottom"/>
  <anchor x="1100" y="0" name="ogonek"/>
  <anchor x="770" y="1034" name="top"/>
  <outline>
    <contour>
      <point x="498" y="-18" type="curve" smooth="yes"/>
      <point x="566" y="-14"/>
      <point x="652" y="20"/>
      <point x="732" y="64" type="curve"/>
      <point x="690" y="138"/>
      <point x="656" y="200"/>
      <point x="578" y="194" type="curve" smooth="yes" name="hr01"/>
      <point x="442" y="184"/>
      <point x="432" y="352"/>
      <point x="448" y="480" type="curve" smooth="yes"/>
      <point x="474" y="700"/>
      <point x="590" y="852"/>
      <point x="772" y="852" type="curve" smooth="yes"/>
      <point x="800" y="852"/>
      <point x="848" y="848"/>
      <point x="900" y="836" type="curve"/>
      <point x="824" y="210" type="line" smooth="yes"/>
      <point x="812" y="112"/>
      <point x="854" y="18"/>
      <point x="886" y="0" type="curve"/>
      <point x="1100" y="0" type="line"/>
      <point x="1088" y="94"/>
      <point x="1090" y="178"/>
      <point x="1100" y="252" type="curve"/>
      <point x="1192" y="998" type="line"/>
      <point x="998" y="1048"/>
      <point x="898" y="1058"/>
      <point x="786" y="1058" type="curve" smooth="yes"/>
      <point x="428" y="1058"/>
      <point x="188" y="798"/>
      <point x="150" y="480" type="curve" smooth="yes"/>
      <point x="120" y="242"/>
      <point x="244" y="-32"/>
    </contour>
  </outline>
</glyph>
<glyph name="b" format="2">
  <advance width="1220"/>
  <unicode hex="0062"/>
  <anchor x="552" y="0" name="bottom"/>
  <anchor x="472" y="1516" name="top"/>
  <outline>
    <contour>
      <point x="582" y="-30" type="curve" smooth="yes"/>
      <point x="920" y="-30"/>
      <point x="1162" y="228"/>
      <point x="1204" y="554" type="curve" smooth="yes"/>
      <point x="1232" y="794"/>
      <point x="1104" y="1066"/>
      <point x="850" y="1052" type="curve" smooth="yes"/>
      <point x="782" y="1048"/>
      <point x="698" y="1028"/>
      <point x="618" y="992" type="curve"/>
      <point x="654" y="912"/>
      <point x="684" y="836"/>
      <point x="774" y="846" type="curve" smooth="yes" name="hr00"/>
      <point x="906" y="858"/>
      <point x="920" y="682"/>
      <point x="906" y="554" type="curve" smooth="yes"/>
      <point x="878" y="334"/>
      <point x="762" y="176"/>
      <point x="606" y="176" type="curve" smooth="yes"/>
      <point x="552" y="176"/>
      <point x="508" y="180"/>
      <point x="448" y="196" type="curve"/>
      <point x="608" y="1502" type="line"/>
      <point x="332" y="1516" type="line"/>
      <point x="156" y="84" type="line"/>
      <point x="308" y="0"/>
      <point x="436" y="-30"/>
    </contour>
  </outline>
</glyph>
<glyph name="c" format="2">
  <advance width="860"/>
  <unicode hex="0063"/>
  <anchor x="514" y="0" name="bottom"/>
  <anchor x="634" y="1034" name="top"/>
  <outline>
    <contour>
      <point x="588" y="-26" type="curve" smooth="yes"/>
      <point x="660" y="-26"/>
      <point x="756" y="-4"/>
      <point x="866" y="44" type="curve"/>
      <point x="820" y="228" type="line"/>
      <point x="730" y="194"/>
      <point x="670" y="180"/>
      <point x="614" y="180" type="curve" smooth="yes"/>
      <point x="470" y="180"/>
      <point x="388" y="308"/>
      <point x="414" y="518" type="curve" smooth="yes"/>
      <point x="440" y="726"/>
      <point x="552" y="854"/>
      <point x="696" y="854" type="curve" smooth="yes"/>
      <point x="740" y="854"/>
      <point x="804" y="846"/>
      <point x="866" y="830" type="curve"/>
      <point x="958" y="1016" type="line"/>
      <point x="882" y="1046"/>
      <point x="794" y="1060"/>
      <point x="722" y="1060" type="curve" smooth="yes" name="hr00"/>
      <point x="444" y="1060"/>
      <point x="164" y="880"/>
      <point x="118" y="518" type="curve" smooth="yes"/>
      <point x="72" y="134"/>
      <point x="310" y="-26"/>
    </contour>
  </outline>
</glyph>
<glyph name="h" format="2">
  <advance width="1216"/>
  <unicode hex="0068"/>
  <anchor x="608" y="0" name="bottom"/>
  <anchor x="566" y="1270" name="center"/>
  <anchor x="470" y="1516" name="top"/>
  <outline>
    <contour>
      <point x="146" y="0" type="line" name="hr00"/>
      <point x="424" y="0" type="line"/>
      <point x="608" y="1502" type="line"/>
      <point x="332" y="1516" type="line"/>
    </contour>
    <contour>
      <point x="792" y="0" type="line"/>
      <point x="1070" y="0" type="line"/>
      <point x="1160" y="738" type="line" smooth="yes"/>
      <point x="1186" y="956"/>
      <point x="1060" y="1060"/>
      <point x="922" y="1060" type="curve" smooth="yes"/>
      <point x="848" y="1060"/>
      <point x="754" y="1046"/>
      <point x="614" y="972" type="curve"/>
      <point x="644" y="900"/>
      <point x="678" y="834"/>
      <point x="738" y="838" type="curve" smooth="yes"/>
      <point x="772" y="840"/>
      <point x="784" y="848"/>
      <point x="808" y="848" type="curve" smooth="yes"/>
      <point x="868" y="848"/>
      <point x="890" y="800"/>
      <point x="882" y="734" type="curve"/>
    </contour>
  </outline>
</glyph>
<glyph name="k" format="2">
  <advance width="1248"/>
  <unicode hex="006B"/>
  <anchor x="652" y="0" name="bottom"/>
  <anchor x="470" y="1516" name="top"/>
  <outline>
    <contour>
      <point x="904" y="0" type="line"/>
      <point x="1212" y="0" type="line"/>
      <point x="896" y="676" type="line"/>
      <point x="1260" y="1020" type="line"/>
      <point x="954" y="1034" type="line"/>
      <point x="748" y="816" type="line" smooth="yes"/>
      <point x="636" y="698"/>
      <point x="554" y="544"/>
      <point x="562" y="360" type="curve"/>
      <point x="684" y="474" type="line"/>
      <point x="716" y="514" type="line"/>
      <point x="724" y="466" type="line"/>
    </contour>
    <contour>
      <point x="146" y="0" type="line"/>
      <point x="424" y="0" type="line" name="hr00"/>
      <point x="608" y="1502" type="line"/>
      <point x="332" y="1516" type="line"/>
    </contour>
  </outline>
</glyph>
<glyph name="l" format="2">
  <advance width="564"/>
  <unicode hex="006C"/>
  <anchor x="290" y="0" name="bottom"/>
  <anchor x="400" y="900" name="center"/>
  <anchor x="474" y="1516" name="top"/>
  <anchor x="712" y="1516" name="topright"/>
  <outline>
    <contour>
      <point x="150" y="0" type="line"/>
      <point x="428" y="0" type="line" name="hr00"/>
      <point x="612" y="1502" type="line"/>
      <point x="336" y="1516" type="line"/>
    </contour>
  </outline>
</glyph>
<glyph name="o" format="2">
  <advance width="1220"/>
  <unicode hex="006F"/>
  <anchor x="602" y="0" name="bottom"/>
  <anchor x="666" y="518" name="center"/>
  <anchor x="1036" y="0" name="ogonek"/>
  <anchor x="730" y="1034" name="top"/>
  <anchor x="1244" y="1034" name="topright"/>
  <outline>
    <contour>
      <point x="600" y="-26" type="curve"/>
      <point x="864" y="-26"/>
      <point x="1160" y="178"/>
      <point x="1202" y="518" type="curve" smooth="yes" name="hr00"/>
      <point x="1242" y="836"/>
      <point x="1052" y="1060"/>
      <point x="734" y="1060" type="curve"/>
      <point x="504" y="1060"/>
      <point x="176" y="894"/>
      <point x="130" y="518" type="curve" smooth="yes"/>
      <point x="88" y="170"/>
      <point x="318" y="-26"/>
    </contour>
    <contour>
      <point x="624" y="178" type="curve"/>
      <point x="478" y="178"/>
      <point x="402" y="318"/>
      <point x="426" y="518" type="curve" smooth="yes"/>
      <point x="450" y="704"/>
      <point x="552" y="856"/>
      <point x="708" y="856" type="curve" smooth="yes"/>
      <point x="864" y="856"/>
      <point x="928" y="704"/>
      <point x="904" y="518" type="curve" smooth="yes"/>
      <point x="882" y="330"/>
      <point x="780" y="178"/>
    </contour>
  </outline>
</glyph>
<glyph name="p" format="2">
  <advance width="1242"/>
  <unicode hex="0070"/>
  <anchor x="226" y="-482" name="bottom"/>
  <anchor x="808" y="1034" name="top"/>
  <outline>
    <contour>
      <point x="88" y="-468" type="line"/>
      <point x="364" y="-482" type="line"/>
      <point x="510" y="714" type="line"/>
      <point x="604" y="810"/>
      <point x="682" y="854"/>
      <point x="760" y="854" type="curve"/>
      <point x="892" y="854"/>
      <point x="952" y="696"/>
      <point x="930" y="510" type="curve"/>
      <point x="906" y="322"/>
      <point x="832" y="188"/>
      <point x="664" y="178" type="curve" smooth="yes"/>
      <point x="598" y="174"/>
      <point x="544" y="110"/>
      <point x="498" y="18" type="curve"/>
      <point x="598" y="-12"/>
      <point x="652" y="-18"/>
      <point x="720" y="-18" type="curve" smooth="yes"/>
      <point x="950" y="-18"/>
      <point x="1190" y="228"/>
      <point x="1226" y="510" type="curve"/>
      <point x="1264" y="826"/>
      <point x="1124" y="1060"/>
      <point x="836" y="1060" type="curve"/>
      <point x="756" y="1060"/>
      <point x="672" y="1030"/>
      <point x="554" y="932" type="curve"/>
      <point x="518" y="892" type="line"/>
      <point x="518" y="932" type="line"/>
      <point x="506" y="972"/>
      <point x="488" y="1014"/>
      <point x="456" y="1034" type="curve" name="hr01"/>
      <point x="240" y="1024" type="line"/>
      <point x="250" y="930"/>
      <point x="248" y="846"/>
      <point x="240" y="772" type="curve"/>
    </contour>
  </outline>
</glyph>
<glyph name="t" format="2">
  <advance width="910"/>
  <unicode hex="0074"/>
  <anchor x="524" y="0" name="bottom"/>
  <anchor x="512" y="552" name="center"/>
  <anchor x="496" y="1280" name="top"/>
  <anchor x="954" y="1280" name="topright"/>
  <outline>
    <contour>
      <point x="596" y="-26" type="curve" smooth="yes"/>
      <point x="662" y="-26"/>
      <point x="738" y="-6"/>
      <point x="842" y="28" type="curve"/>
      <point x="806" y="210" type="line"/>
      <point x="736" y="186"/>
      <point x="688" y="180"/>
      <point x="650" y="180" type="curve" smooth="yes"/>
      <point x="556" y="180"/>
      <point x="502" y="260"/>
      <point x="520" y="396" type="curve" smooth="yes"/>
      <point x="638" y="1366" type="line"/>
      <point x="364" y="1280" type="line"/>
      <point x="334" y="1034" type="line"/>
      <point x="164" y="994" type="line"/>
      <point x="144" y="836" type="line"/>
      <point x="310" y="836" type="line" name="hr00"/>
      <point x="256" y="396" type="line"/>
      <point x="222" y="124"/>
      <point x="342" y="-26"/>
    </contour>
    <contour>
      <point x="842" y="836" type="curve"/>
      <point x="932" y="836" type="line"/>
      <point x="956" y="1034" type="line"/>
      <point x="666" y="1034" type="line"/>
      <point x="682" y="946"/>
      <point x="726" y="836"/>
    </contour>
  </outline>
</glyph>
<glyph name="u" format="2">
  <advance width="1226"/>
  <unicode hex="0075"/>
  <anchor x="586" y="0" name="bottom"/>
  <anchor x="1090" y="10" name="ogonek"/>
  <anchor x="730" y="1034" name="top"/>
  <anchor x="1250" y="1034" name="topright"/>
  <outline>
    <contour>
      <point x="406" y="-26" type="curve" smooth="yes"/>
      <point x="498" y="-26"/>
      <point x="594" y="-4"/>
      <point x="736" y="66" type="curve"/>
      <point x="704" y="130"/>
      <point x="672" y="202"/>
      <point x="610" y="198" type="curve" name="hr01"/>
      <point x="572" y="196"/>
      <point x="550" y="186"/>
      <point x="524" y="186" type="curve" smooth="yes"/>
      <point x="456" y="186"/>
      <point x="438" y="234"/>
      <point x="446" y="300" type="curve" smooth="yes"/>
      <point x="536" y="1034" type="line"/>
      <point x="258" y="1034" type="line"/>
      <point x="168" y="296" type="line" smooth="yes"/>
      <point x="140" y="78"/>
      <point x="268" y="-26"/>
    </contour>
    <contour>
      <point x="854" y="0" type="curve"/>
      <point x="1090" y="10" type="line"/>
      <point x="1078" y="104"/>
      <point x="1078" y="188"/>
      <point x="1088" y="262" type="curve" smooth="yes"/>
      <point x="1182" y="1034" type="line"/>
      <point x="902" y="1034" type="line"/>
      <point x="802" y="220" type="line" smooth="yes"/>
      <point x="792" y="140"/>
      <point x="800" y="72"/>
    </contour>
  </outline>
</glyph>
<glyph name="v" format="2">
  <advance width="1094"/>
  <unicode hex="0076"/>
  <anchor x="550" y="0" name="bottom"/>
  <anchor x="678" y="1034" name="top"/>
  <outline>
    <contour>
      <point x="400" y="0" type="line" name="hr00"/>
      <point x="698" y="0" type="line"/>
      <point x="1204" y="1020" type="line"/>
      <point x="922" y="1034" type="line"/>
      <point x="602" y="302" type="line"/>
      <point x="580" y="242" type="line"/>
      <point x="574" y="302" type="line"/>
      <point x="432" y="1034" type="line"/>
      <point x="138" y="1034" type="line"/>
    </contour>
  </outline>
</glyph>
<glyph name="z" format="2">
  <advance width="948"/>
  <unicode hex="007A"/>
  <anchor x="478" y="0" name="bottom"/>
  <anchor x="606" y="1034" name="top"/>
  <outline>
    <contour>
      <point x="60" y="0" type="line"/>
      <point x="870" y="0" type="line"/>
      <point x="894" y="196" type="line"/>
      <point x="450" y="196" type="line"/>
      <point x="404" y="190" type="line"/>
      <point x="438" y="224" type="line"/>
      <point x="978" y="916" type="line"/>
      <point x="992" y="1034" type="line"/>
      <point x="240" y="1034" type="line" name="hr00"/>
      <point x="216" y="842" type="line"/>
      <point x="608" y="842" type="line"/>
      <point x="652" y="848" type="line"/>
      <point x="616" y="814" type="line"/>
      <point x="74" y="118" type="line"/>
    </contour>
  </outline>
</glyph>
<glyph name="braceright" format="2">
  <advance width="856"/>
  <unicode hex="007D"/>
  <outline>
    <contour>
      <point x="240" y="-352" type="line"/>
      <point x="512" y="-182"/>
      <point x="620" y="14"/>
      <point x="686" y="374" type="curve"/>
      <point x="706" y="468"/>
      <point x="798" y="522"/>
      <point x="902" y="540" type="curve"/>
      <point x="918" y="684" type="line"/>
      <point x="820" y="702"/>
      <point x="738" y="756"/>
      <point x="742" y="850" type="curve" name="hr00"/>
      <point x="758" y="1186"/>
      <point x="696" y="1370"/>
      <point x="472" y="1534" type="curve"/>
      <point x="324" y="1404" type="line"/>
      <point x="472" y="1254"/>
      <point x="514" y="1126"/>
      <point x="500" y="878" type="curve"/>
      <point x="496" y="768"/>
      <point x="540" y="684"/>
      <point x="618" y="628" type="curve"/>
      <point x="668" y="606" type="line"/>
      <point x="614" y="584" type="line"/>
      <point x="524" y="528"/>
      <point x="456" y="446"/>
      <point x="434" y="336" type="curve"/>
      <point x="386" y="70"/>
      <point x="312" y="-70"/>
      <point x="124" y="-220" type="curve"/>
    </contour>
  </outline>
</glyph>
<glyph name="asciitilde" format="2">
  <advance width="1228"/>
  <unicode hex="007E"/>
  <outline>
    <contour>
      <point x="416" y="456" type="line"/>
      <point x="438" y="548"/>
      <point x="498" y="578"/>
      <point x="542" y="578" type="curve" smooth="yes" name="hr02"/>
      <point x="584" y="578"/>
      <point x="616" y="554"/>
      <point x="652" y="526" type="curve" smooth="yes"/>
      <point x="706" y="484"/>
      <point x="768" y="434"/>
      <point x="894" y="434" type="curve" smooth="yes"/>
      <point x="1014" y="434"/>
      <point x="1190" y="526"/>
      <point x="1230" y="754" type="curve"/>
      <point x="1002" y="770" type="line"/>
      <point x="982" y="698"/>
      <point x="942" y="648"/>
      <point x="888" y="648" type="curve" smooth="yes" name="hr01"/>
      <point x="848" y="648"/>
      <point x="812" y="674"/>
      <point x="770" y="704" type="curve" smooth="yes"/>
      <point x="712" y="744"/>
      <point x="642" y="792"/>
      <point x="534" y="792" type="curve"/>
      <point x="382" y="790"/>
      <point x="214" y="676"/>
      <point x="182" y="472" type="curve"/>
    </contour>
  </outline>
</glyph>
<glyph name="exclamdown" format="2">
  <advance width="702"/>
  <unicode hex="00A1"/>
  <outline>
    <contour>
      <point x="42" y="-420" type="line" name="hr00"/>
      <point x="322" y="-420" type="line"/>
      <point x="402" y="574" type="line"/>
      <point x="202" y="574" type="line"/>
    </contour>
    <contour>
      <point x="318" y="730" type="curve" smooth="yes"/>
      <point x="410" y="730"/>
      <point x="492" y="806"/>
      <point x="504" y="898" type="curve" smooth="yes"/>
      <point x="514" y="990"/>
      <point x="452" y="1062"/>
      <point x="360" y="1062" type="curve" smooth="yes"/>
      <point x="266" y="1062"/>
      <point x="184" y="990"/>
      <point x="174" y="898" type="curve"/>
      <point x="162" y="806"/>
      <point x="224" y="730"/>
    </contour>
  </outline>
</glyph>
<glyph name="sterling" format="2">
  <advance width="1026"/>
  <unicode hex="00A3"/>
  <outline>
    <contour>
      <point x="68" y="0" type="line"/>
      <point x="966" y="0" type="line"/>
      <point x="992" y="224" type="line"/>
      <point x="532" y="224" type="line"/>
      <point x="488" y="220" type="line"/>
      <point x="528" y="260" type="line"/>
      <point x="564" y="304"/>
      <point x="586" y="336"/>
      <point x="606" y="394" type="curve" name="hr00"/>
      <point x="670" y="592"/>
      <point x="618" y="780"/>
      <point x="648" y="1022" type="curve" smooth="yes"/>
      <point x="664" y="1150"/>
      <point x="748" y="1216"/>
      <point x="878" y="1216" type="curve" smooth="yes"/>
      <point x="934" y="1216"/>
      <point x="1026" y="1202"/>
      <point x="1122" y="1160" type="curve"/>
      <point x="1214" y="1350" type="line"/>
      <point x="1098" y="1406"/>
      <point x="998" y="1424"/>
      <point x="904" y="1424" type="curve"/>
      <point x="628" y="1424"/>
      <point x="416" y="1294"/>
      <point x="382" y="1024" type="curve" smooth="yes"/>
      <point x="372" y="940"/>
      <point x="372" y="866"/>
      <point x="374" y="804" type="curve"/>
      <point x="208" y="804" type="line"/>
      <point x="184" y="610" type="line"/>
      <point x="382" y="610" type="line"/>
      <point x="380" y="560"/>
      <point x="378" y="524"/>
      <point x="372" y="484" type="curve" smooth="yes"/>
      <point x="354" y="338"/>
      <point x="238" y="224"/>
      <point x="86" y="152" type="curve"/>
    </contour>
    <contour>
      <point x="878" y="610" type="curve"/>
      <point x="1010" y="610" type="line"/>
      <point x="1034" y="804" type="line"/>
      <point x="712" y="804" type="line"/>
      <point x="730" y="718"/>
      <point x="758" y="610"/>
    </contour>
  </outline>
</glyph>
<glyph name="currency" format="2">
  <advance width="1026"/>
  <unicode hex="00A4"/>
  <outline>
    <contour>
      <point x="174" y="198" type="line"/>
      <point x="338" y="340" type="line"/>
      <point x="386" y="302"/>
      <point x="456" y="272"/>
      <point x="544" y="272" type="curve" smooth="yes"/>
      <point x="638" y="272"/>
      <point x="722" y="304"/>
      <point x="772" y="342" type="curve"/>
      <point x="910" y="200" type="line"/>
      <point x="1022" y="306" type="line"/>
      <point x="882" y="452" type="line"/>
      <point x="920" y="498"/>
      <point x="958" y="586"/>
      <point x="970" y="682" type="curve"/>
      <point x="982" y="778"/>
      <point x="964" y="862"/>
      <point x="938" y="908" type="curve"/>
      <point x="1114" y="1054" type="line"/>
      <point x="1028" y="1160" type="line"/>
      <point x="856" y="1018" type="line"/>
      <point x="814" y="1056"/>
      <point x="738" y="1088"/>
      <point x="644" y="1088" type="curve" smooth="yes"/>
      <point x="556" y="1088"/>
      <point x="478" y="1058"/>
      <point x="422" y="1020" type="curve"/>
      <point x="292" y="1162" type="line"/>
      <point x="170" y="1050" type="line"/>
      <point x="308" y="908" type="line"/>
      <point x="268" y="862"/>
      <point x="226" y="782"/>
      <point x="212" y="682" type="curve"/>
      <point x="200" y="578"/>
      <point x="224" y="498"/>
      <point x="252" y="452" type="curve"/>
      <point x="80" y="310" type="line"/>
    </contour>
    <contour>
      <point x="560" y="420" type="curve" smooth="yes"/>
      <point x="452" y="420"/>
      <point x="368" y="524"/>
      <point x="386" y="680" type="curve"/>
      <point x="406" y="836"/>
      <point x="516" y="940"/>
      <point x="624" y="940" type="curve"/>
      <point x="738" y="940"/>
      <point x="816" y="818"/>
      <point x="798" y="680" type="curve" name="hr00"/>
      <point x="782" y="542"/>
      <point x="674" y="420"/>
    </contour>
  </outline>
</glyph>
<glyph name="registered" format="2">
  <advance width="1440"/>
  <unicode hex="00AE"/>
  <outline>
    <contour>
      <point x="718" y="42" type="curve" smooth="yes"/>
      <point x="1102" y="42"/>
      <point x="1420" y="352"/>
      <point x="1464" y="714" type="curve" smooth="yes"/>
      <point x="1512" y="1100"/>
      <point x="1276" y="1380"/>
      <point x="882" y="1380" type="curve" smooth="yes" name="hr00"/>
      <point x="494" y="1380"/>
      <point x="174" y="1070"/>
      <point x="130" y="714" type="curve" smooth="yes"/>
      <point x="82" y="322"/>
      <point x="320" y="42"/>
    </contour>
    <contour>
      <point x="738" y="198" type="curve" smooth="yes"/>
      <point x="466" y="198"/>
      <point x="276" y="394"/>
      <point x="314" y="708" type="curve" smooth="yes"/>
      <point x="352" y="1026"/>
      <point x="592" y="1226"/>
      <point x="864" y="1226" type="curve" smooth="yes"/>
      <point x="1130" y="1226"/>
      <point x="1318" y="1026"/>
      <point x="1280" y="714" type="curve" smooth="yes"/>
      <point x="1242" y="394"/>
      <point x="1004" y="198"/>
    </contour>
    <contour>
      <point x="528" y="378" type="line"/>
      <point x="692" y="378" type="line"/>
      <point x="760" y="938" type="line"/>
      <point x="796" y="942"/>
      <point x="798" y="944"/>
      <point x="822" y="944" type="curve" smooth="yes"/>
      <point x="902" y="944"/>
      <point x="938" y="914"/>
      <point x="930" y="862" type="curve" smooth="yes"/>
      <point x="926" y="816"/>
      <point x="906" y="782"/>
      <point x="858" y="770" type="curve" smooth="yes"/>
      <point x="798" y="756"/>
      <point x="768" y="702"/>
      <point x="750" y="650" type="curve"/>
      <point x="766" y="650"/>
      <point x="782" y="650"/>
      <point x="798" y="650" type="curve"/>
      <point x="892" y="612"/>
      <point x="854" y="486"/>
      <point x="892" y="378" type="curve"/>
      <point x="1064" y="378" type="line"/>
      <point x="1024" y="496"/>
      <point x="1042" y="606"/>
      <point x="974" y="666" type="curve"/>
      <point x="940" y="686" type="line"/>
      <point x="984" y="694" type="line"/>
      <point x="1052" y="728"/>
      <point x="1092" y="790"/>
      <point x="1100" y="862" type="curve" smooth="yes"/>
      <point x="1116" y="992"/>
      <point x="1008" y="1072"/>
      <point x="838" y="1072" type="curve" smooth="yes"/>
      <point x="768" y="1072"/>
      <point x="688" y="1060"/>
      <point x="608" y="1042" type="curve"/>
    </contour>
  </outline>
</glyph>
<glyph name="threesuperior" format="2">
  <advance width="762"/>
  <unicode hex="00B3"/>
  <outline>
    <contour>
      <point x="388" y="602" type="curve" smooth="yes"/>
      <point x="572" y="602"/>
      <point x="726" y="700"/>
      <point x="746" y="860" type="curve" smooth="yes"/>
      <point x="762" y="980"/>
      <point x="680" y="1058"/>
      <point x="592" y="1080" type="curve"/>
      <point x="688" y="1122"/>
      <point x="760" y="1192"/>
      <point x="770" y="1276" type="curve" smooth="yes"/>
      <point x="786" y="1410"/>
      <point x="678" y="1470"/>
      <point x="532" y="1470" type="curve" smooth="yes"/>
      <point x="466" y="1470"/>
      <point x="396" y="1458"/>
      <point x="316" y="1420" type="curve"/>
      <point x="350" y="1302" type="line"/>
      <point x="408" y="1320"/>
      <point x="456" y="1330"/>
      <point x="502" y="1330" type="curve" smooth="yes" name="hr01"/>
      <point x="560" y="1330"/>
      <point x="592" y="1294"/>
      <point x="588" y="1262" type="curve"/>
      <point x="580" y="1200"/>
      <point x="528" y="1166"/>
      <point x="452" y="1136" type="curve" smooth="yes"/>
      <point x="386" y="1110" type="line"/>
      <point x="386" y="998" type="line"/>
      <point x="522" y="998"/>
      <point x="578" y="950"/>
      <point x="568" y="866" type="curve" smooth="yes"/>
      <point x="558" y="796"/>
      <point x="494" y="742"/>
      <point x="404" y="742" type="curve" smooth="yes"/>
      <point x="350" y="742"/>
      <point x="294" y="760"/>
      <point x="248" y="780" type="curve"/>
      <point x="190" y="658" type="line"/>
      <point x="226" y="634"/>
      <point x="306" y="602"/>
    </contour>
  </outline>
</glyph>
<glyph name="onesuperior" format="2">
  <advance width="638"/>
  <unicode hex="00B9"/>
  <outline>
    <contour>
      <point x="408" y="618" type="line" name="hr00"/>
      <point x="606" y="618" type="line"/>
      <point x="710" y="1454" type="line"/>
      <point x="614" y="1454" type="line"/>
      <point x="310" y="1302" type="line"/>
      <point x="366" y="1174" type="line"/>
      <point x="484" y="1228" type="line"/>
    </contour>
  </outline>
</glyph>
<glyph name="AE" format="2">
  <advance width="1950"/>
  <unicode hex="00C6"/>
  <anchor x="928" y="0" name="bottom"/>
  <anchor x="1112" y="1454" name="top"/>
  <outline>
    <contour>
      <point x="0" y="0" type="line"/>
      <point x="282" y="0" type="line"/>
      <point x="474" y="318" type="line" name="hr00"/>
      <point x="930" y="318" type="line"/>
      <point x="912" y="406"/>
      <point x="872" y="524"/>
      <point x="756" y="524" type="curve" smooth="yes"/>
      <point x="622" y="524" type="line"/>
      <point x="580" y="520" type="line"/>
      <point x="616" y="560" type="line"/>
      <point x="948" y="1108" type="line"/>
      <point x="984" y="1178" type="line"/>
      <point x="980" y="1104" type="line"/>
      <point x="1012" y="0" type="line"/>
      <point x="1830" y="0" type="line"/>
      <point x="1854" y="206" type="line"/>
      <point x="1272" y="206" type="line"/>
      <point x="1244" y="1248" type="line"/>
      <point x="1840" y="1248" type="line"/>
      <point x="1866" y="1454" type="line"/>
      <point x="922" y="1454" type="line"/>
    </contour>
    <contour>
      <point x="1332" y="662" type="curve"/>
      <point x="1788" y="662" type="line"/>
      <point x="1814" y="864" type="line"/>
      <point x="1586" y="864" type="line" smooth="yes"/>
      <point x="1448" y="864"/>
      <point x="1374" y="760"/>
    </contour>
  </outline>
</glyph>
<glyph name="germandbls" format="2">
  <advance width="1134"/>
  <unicode hex="00DF"/>
  <anchor x="592" y="0" name="bottom"/>
  <anchor x="774" y="1516" name="top"/>
  <outline>
    <contour>
      <point x="784" y="-24" type="curve" smooth="yes"/>
      <point x="954" y="-24"/>
      <point x="1136" y="86"/>
      <point x="1160" y="282" type="curve" smooth="yes"/>
      <point x="1200" y="612"/>
      <point x="854" y="628"/>
      <point x="876" y="802" type="curve" smooth="yes"/>
      <point x="884" y="870"/>
      <point x="936" y="916"/>
      <point x="1030" y="952" type="curve"/>
      <point x="1090" y="1032"/>
      <point x="1124" y="1106"/>
      <point x="1134" y="1176" type="curve" smooth="yes"/>
      <point x="1160" y="1386"/>
      <point x="1022" y="1526"/>
      <point x="774" y="1526" type="curve" smooth="yes"/>
      <point x="530" y="1526"/>
      <point x="306" y="1386"/>
      <point x="268" y="1088" type="curve" smooth="yes"/>
      <point x="134" y="-2" type="line"/>
      <point x="402" y="0" type="line"/>
      <point x="538" y="1110" type="line" smooth="yes"/>
      <point x="554" y="1246"/>
      <point x="648" y="1326"/>
      <point x="764" y="1326" type="curve" smooth="yes"/>
      <point x="866" y="1326"/>
      <point x="926" y="1262"/>
      <point x="916" y="1176" type="curve" smooth="yes"/>
      <point x="912" y="1146"/>
      <point x="908" y="1122"/>
      <point x="898" y="1092" type="curve"/>
      <point x="752" y="1038"/>
      <point x="646" y="918"/>
      <point x="632" y="802" type="curve" smooth="yes"/>
      <point x="592" y="486"/>
      <point x="938" y="458"/>
      <point x="916" y="288" type="curve" smooth="yes"/>
      <point x="908" y="226"/>
      <point x="850" y="184"/>
      <point x="778" y="184" type="curve" smooth="yes"/>
      <point x="738" y="184"/>
      <point x="674" y="194"/>
      <point x="596" y="230" type="curve" name="hr00"/>
      <point x="504" y="50" type="line"/>
      <point x="622" y="-14"/>
      <point x="704" y="-24"/>
    </contour>
  </outline>
</glyph>
<glyph name="eth" format="2">
  <advance width="1114"/>
  <unicode hex="00F0"/>
  <outline>
    <contour>
      <point x="560" y="-26" type="curve" smooth="yes"/>
      <point x="858" y="-26"/>
      <point x="1124" y="210"/>
      <point x="1162" y="518" type="curve" smooth="yes" name="hr00"/>
      <point x="1202" y="836"/>
      <point x="1078" y="1098"/>
      <point x="878" y="1288" type="curve"/>
      <point x="1046" y="1364" type="line"/>
      <point x="1002" y="1482" type="line"/>
      <point x="770" y="1376" type="line"/>
      <point x="692" y="1436"/>
      <point x="604" y="1484"/>
      <point x="512" y="1524" type="curve"/>
      <point x="408" y="1372" type="line"/>
      <point x="460" y="1346"/>
      <point x="512" y="1316"/>
      <point x="564" y="1284" type="curve"/>
      <point x="398" y="1208" type="line"/>
      <point x="438" y="1092" type="line"/>
      <point x="680" y="1200" type="line"/>
      <point x="742" y="1150"/>
      <point x="796" y="1092"/>
      <point x="838" y="1030" type="curve"/>
      <point x="794" y="1050"/>
      <point x="740" y="1060"/>
      <point x="694" y="1060" type="curve" smooth="yes"/>
      <point x="394" y="1060"/>
      <point x="128" y="824"/>
      <point x="90" y="518" type="curve" smooth="yes"/>
      <point x="50" y="184"/>
      <point x="260" y="-26"/>
    </contour>
    <contour>
      <point x="584" y="178" type="curve" smooth="yes"/>
      <point x="428" y="178"/>
      <point x="364" y="330"/>
      <point x="386" y="518" type="curve" smooth="yes"/>
      <point x="410" y="704"/>
      <point x="512" y="856"/>
      <point x="668" y="856" type="curve" smooth="yes"/>
      <point x="824" y="856"/>
      <point x="888" y="704"/>
      <point x="864" y="518" type="curve" smooth="yes"/>
      <point x="842" y="330"/>
      <point x="740" y="178"/>
    </contour>
  </outline>
</glyph>
<glyph name="divide" format="2">
  <advance width="1136"/>
  <unicode hex="00F7"/>
  <outline>
    <contour>
      <point x="156" y="514" type="line"/>
      <point x="1092" y="514" type="line"/>
      <point x="1116" y="706" type="line"/>
      <point x="180" y="706" type="line"/>
    </contour>
    <contour>
      <point x="572" y="102" type="curve" smooth="yes"/>
      <point x="646" y="102"/>
      <point x="704" y="152"/>
      <point x="712" y="224" type="curve" smooth="yes"/>
      <point x="722" y="298"/>
      <point x="676" y="350"/>
      <point x="602" y="350" type="curve" smooth="yes"/>
      <point x="530" y="350"/>
      <point x="474" y="298"/>
      <point x="464" y="224" type="curve" smooth="yes" name="hr00"/>
      <point x="456" y="152"/>
      <point x="500" y="102"/>
    </contour>
    <contour>
      <point x="666" y="868" type="curve" smooth="yes"/>
      <point x="738" y="868"/>
      <point x="796" y="918"/>
      <point x="804" y="988" type="curve" smooth="yes"/>
      <point x="814" y="1060"/>
      <point x="768" y="1112"/>
      <point x="696" y="1112" type="curve" smooth="yes"/>
      <point x="626" y="1112"/>
      <point x="570" y="1060"/>
      <point x="560" y="988" type="curve" smooth="yes"/>
      <point x="552" y="918"/>
      <point x="596" y="868"/>
    </contour>
  </outline>
</glyph>
<glyph name="idotless" format="2">
  <advance width="560"/>
  <unicode hex="0131"/>
  <anchor x="280" y="0" name="bottom"/>
  <anchor x="420" y="0" name="ogonek"/>
  <anchor x="406" y="1034" name="top"/>
  <outline>
    <contour>
      <point x="140" y="0" type="line" name="hr00"/>
      <point x="420" y="0" type="line"/>
      <point x="546" y="1034" type="line"/>
      <point x="266" y="1034" type="line"/>
    </contour>
  </outline>
</glyph>
<glyph name="oe" format="2">
  <advance width="1892"/>
  <unicode hex="0153"/>
  <anchor x="978" y="0" name="bottom"/>
  <anchor x="1106" y="1034" name="top"/>
  <outline>
    <contour>
      <point x="600" y="-26" type="curve" smooth="yes"/>
      <point x="742" y="-26"/>
      <point x="890" y="62"/>
      <point x="984" y="172" type="curve"/>
      <point x="1012" y="216" type="line"/>
      <point x="1024" y="170" type="line"/>
      <point x="1080" y="58"/>
      <point x="1214" y="-26"/>
      <point x="1378" y="-26" type="curve" smooth="yes"/>
      <point x="1502" y="-26"/>
      <point x="1630" y="0"/>
      <point x="1782" y="68" type="curve"/>
      <point x="1734" y="254" type="line"/>
      <point x="1612" y="202"/>
      <point x="1526" y="180"/>
      <point x="1434" y="180" type="curve" smooth="yes"/>
      <point x="1266" y="180"/>
      <point x="1168" y="314"/>
      <point x="1196" y="544" type="curve" smooth="yes"/>
      <point x="1224" y="772"/>
      <point x="1360" y="866"/>
      <point x="1470" y="866" type="curve" smooth="yes"/>
      <point x="1592" y="866"/>
      <point x="1648" y="756"/>
      <point x="1616" y="634" type="curve" name="hr00"/>
      <point x="1438" y="634" type="line"/>
      <point x="1370" y="634"/>
      <point x="1302" y="562"/>
      <point x="1262" y="470" type="curve"/>
      <point x="1822" y="470" type="line"/>
      <point x="1982" y="814"/>
      <point x="1804" y="1060"/>
      <point x="1508" y="1060" type="curve" smooth="yes"/>
      <point x="1366" y="1060"/>
      <point x="1212" y="996"/>
      <point x="1110" y="876" type="curve"/>
      <point x="1080" y="828" type="line"/>
      <point x="1066" y="874" type="line"/>
      <point x="1000" y="996"/>
      <point x="868" y="1060"/>
      <point x="734" y="1060" type="curve" smooth="yes"/>
      <point x="434" y="1060"/>
      <point x="168" y="824"/>
      <point x="130" y="518" type="curve" smooth="yes"/>
      <point x="90" y="184"/>
      <point x="300" y="-26"/>
    </contour>
    <contour>
      <point x="624" y="178" type="curve" smooth="yes"/>
      <point x="468" y="178"/>
      <point x="404" y="330"/>
      <point x="426" y="518" type="curve" smooth="yes"/>
      <point x="450" y="704"/>
      <point x="552" y="856"/>
      <point x="708" y="856" type="curve" smooth="yes"/>
      <point x="864" y="856"/>
      <point x="928" y="704"/>
      <point x="904" y="518" type="curve" smooth="yes"/>
      <point x="882" y="330"/>
      <point x="780" y="178"/>
    </contour>
  </outline>
</glyph>
<glyph name="gravecomb" format="2">
  <unicode hex="0300"/>
  <anchor x="466" y="1034" name="_top"/>
  <anchor x="522" y="1480" name="top"/>
  <outline>
    <contour>
      <point x="614" y="1204" type="curve"/>
      <point x="476" y="1480" type="line"/>
      <point x="198" y="1480" type="line"/>
      <point x="332" y="1290" type="line" name="hr00"/>
      <point x="398" y="1194"/>
      <point x="544" y="1186"/>
    </contour>
  </outline>
</glyph>
<glyph name="acutecomb" format="2">
  <unicode hex="0301"/>
  <anchor x="270" y="1034" name="_top"/>
  <anchor x="326" y="1480" name="top"/>
  <outline>
    <contour>
      <point x="164" y="1204" type="line"/>
      <point x="230" y="1186"/>
      <point x="378" y="1194"/>
      <point x="468" y="1290" type="curve" name="hr00"/>
      <point x="648" y="1480" type="line"/>
      <point x="370" y="1480" type="line"/>
    </contour>
  </outline>
</glyph>
<glyph name="macroncomb" format="2">
  <unicode hex="0304"/>
  <anchor x="446" y="1034" name="_top"/>
  <anchor x="488" y="1374" name="top"/>
  <outline>
    <contour>
      <point x="166" y="1206" type="line" name="hr00"/>
      <point x="770" y="1206" type="line"/>
      <point x="790" y="1374" type="line"/>
      <point x="186" y="1374" type="line"/>
    </contour>
  </outline>
</glyph>
<glyph name="dieresiscomb" format="2">
  <unicode hex="0308"/>
  <anchor x="466" y="1034" name="_top"/>
  <anchor x="520" y="1466" name="top"/>
  <outline>
    <contour>
      <point x="292" y="1214" type="curve" smooth="yes"/>
      <point x="362" y="1214"/>
      <point x="426" y="1270"/>
      <point x="436" y="1340" type="curve" smooth="yes"/>
      <point x="444" y="1410"/>
      <point x="394" y="1466"/>
      <point x="324" y="1466" type="curve" smooth="yes"/>
      <point x="256" y="1466"/>
      <point x="190" y="1410"/>
      <point x="182" y="1340" type="curve" smooth="yes" name="hr00"/>
      <point x="172" y="1270"/>
      <point x="224" y="1214"/>
    </contour>
    <contour>
      <point x="682" y="1214" type="curve" smooth="yes"/>
      <point x="752" y="1214"/>
      <point x="816" y="1270"/>
      <point x="826" y="1340" type="curve" smooth="yes"/>
      <point x="834" y="1410"/>
      <point x="784" y="1466"/>
      <point x="714" y="1466" type="curve" smooth="yes"/>
      <point x="646" y="1466"/>
      <point x="580" y="1410"/>
      <point x="572" y="1340" type="curve" smooth="yes"/>
      <point x="562" y="1270"/>
      <point x="614" y="1214"/>
    </contour>
  </outline>
</glyph>
<glyph name="ringcomb" format="2">
  <unicode hex="030A"/>
  <anchor x="362" y="1034" name="_top"/>
  <anchor x="418" y="1502" name="top"/>
  <outline>
    <contour>
      <point x="372" y="1120" type="curve" smooth="yes"/>
      <point x="492" y="1120"/>
      <point x="600" y="1198"/>
      <point x="614" y="1308" type="curve" smooth="yes"/>
      <point x="628" y="1424"/>
      <point x="550" y="1502"/>
      <point x="422" y="1502" type="curve" smooth="yes"/>
      <point x="296" y="1502"/>
      <point x="190" y="1418"/>
      <point x="176" y="1306" type="curve" smooth="yes"/>
      <point x="162" y="1200"/>
      <point x="246" y="1120"/>
    </contour>
    <contour>
      <point x="386" y="1232" type="curve" smooth="yes"/>
      <point x="342" y="1232"/>
      <point x="320" y="1270"/>
      <point x="326" y="1308" type="curve" smooth="yes"/>
      <point x="332" y="1356"/>
      <point x="362" y="1390"/>
      <point x="406" y="1390" type="curve" smooth="yes"/>
      <point x="454" y="1390"/>
      <point x="476" y="1356"/>
      <point x="470" y="1310" type="curve" smooth="yes"/>
      <point x="464" y="1266"/>
      <point x="434" y="1232"/>
    </contour>
  </outline>
</glyph>
<glyph name="cedillacomb" format="2">
  <unicode hex="0327"/>
  <anchor x="218" y="0" name="_bottom"/>
  <anchor x="166" y="-426" name="bottom"/>
  <outline>
    <contour>
      <point x="126" y="-426" type="curve" smooth="yes"/>
      <point x="248" y="-426"/>
      <point x="388" y="-366"/>
      <point x="402" y="-246" type="curve" smooth="yes"/>
      <point x="414" y="-158"/>
      <point x="338" y="-104"/>
      <point x="260" y="-86" type="curve"/>
      <point x="294" y="6" type="line" name="hr00"/>
      <point x="156" y="-6" type="line"/>
      <point x="88" y="-182" type="line"/>
      <point x="182" y="-192"/>
      <point x="232" y="-212"/>
      <point x="228" y="-252" type="curve" smooth="yes"/>
      <point x="224" y="-282"/>
      <point x="188" y="-300"/>
      <point x="142" y="-300" type="curve" smooth="yes"/>
      <point x="102" y="-300"/>
      <point x="66" y="-294"/>
      <point x="20" y="-276" type="curve"/>
      <point x="-30" y="-386" type="line"/>
      <point x="30" y="-414"/>
      <point x="80" y="-426"/>
    </contour>
  </outline>
</glyph>
<glyph name="dagger" format="2">
  <advance width="1134"/>
  <unicode hex="2020"/>
  <outline>
    <contour>
      <point x="420" y="-60" type="line"/>
      <point x="660" y="-60" type="line" name="hr00"/>
      <point x="838" y="1394" type="line"/>
      <point x="598" y="1394" type="line"/>
    </contour>
    <contour>
      <point x="94" y="782" type="line"/>
      <point x="228" y="782" type="line"/>
      <point x="358" y="782"/>
      <point x="432" y="884"/>
      <point x="478" y="984" type="curve"/>
      <point x="118" y="984" type="line"/>
    </contour>
    <contour>
      <point x="1060" y="782" type="curve"/>
      <point x="1194" y="782" type="line"/>
      <point x="1218" y="984" type="line"/>
      <point x="858" y="984" type="line"/>
      <point x="880" y="884"/>
      <point x="930" y="782"/>
    </contour>
  </outline>
</glyph>
<glyph name="guilsinglleft" format="2">
  <advance width="1226"/>
  <unicode hex="2039"/>
  <outline>
    <contour>
      <point x="824" y="90" type="line"/>
      <point x="948" y="196" type="line"/>
      <point x="734" y="516" type="line"/>
      <point x="1026" y="836" type="line"/>
      <point x="928" y="944" type="line"/>
      <point x="410" y="516" type="line" name="hr00"/>
    </contour>
  </outline>
</glyph>
<glyph name="guilsinglright" format="2">
  <advance width="1226"/>
  <unicode hex="203A"/>
  <outline>
    <contour>
      <point x="498" y="90" type="line" name="hr00"/>
      <point x="1016" y="516" type="line"/>
      <point x="602" y="944" type="line"/>
      <point x="480" y="836" type="line"/>
      <point x="692" y="516" type="line"/>
      <point x="402" y="196" type="line"/>
    </contour>
  </outline>
</glyph>
<glyph name="acutecomb.case" format="2">
  <anchor x="324" y="1454" name="_top"/>
  <anchor x="362" y="1780" name="top"/>
  <outline>
    <contour>
      <point x="204" y="1530" type="line"/>
      <point x="270" y="1512"/>
      <point x="418" y="1526"/>
      <point x="510" y="1616" type="curve" name="hr00"/>
      <point x="674" y="1780" type="line"/>
      <point x="408" y="1780" type="line"/>
    </contour>
  </outline>
</glyph>
